<svg id="Layer_1" data-name="Layer 1" xmlns="http://www.w3.org/2000/svg" viewBox="0 0 500 500"><defs><style>.cls-1{fill:#212121;}</style></defs><path class="cls-1" d="M441.47,253c-33,54.56-78.33,93.47-140.68,110.3-36.32,9.8-72.77,8.54-108.89-2a14.35,14.35,0,0,1-1.79-.88c6.33-6.3,12.45-12.45,18.69-18.47a4,4,0,0,1,3.11-.45c59.75,12.5,112.16-3.21,158.6-41.46a234.62,234.62,0,0,0,43.19-47.43c1.35-1.94,1.39-3.24,0-5.2a243.59,243.59,0,0,0-50.28-53l-3.66-2.85,17.5-17.33C403,194.34,425,218.16,441.47,247Z"/><path class="cls-1" d="M143.5,340a244.92,244.92,0,0,1-48.9-39.12,266.8,266.8,0,0,1-32.92-41.57c-4.07-6.33-4.27-11.95-.12-18.33,31.49-48.37,72.8-84.54,128.66-101.76,47.54-14.65,94.51-11.66,140.33,7.77,2.82,1.2,4.48,1.1,6.7-1.17,11.69-11.94,23.59-23.69,35.4-35.52,3.45-3.45,7.5-4.83,12.28-3.44a11.35,11.35,0,0,1,8.29,8.81c1.12,4.83-.73,8.7-4.16,12.11q-24,23.9-47.91,47.88L128.92,387.86l-1.59,1.58c-5.51,5.38-12.71,5.7-17.65.79S105,378,110.35,372.6q14-14.09,28.05-28.05C139.88,343.07,141.51,341.74,143.5,340ZM315.26,166.92a13.94,13.94,0,0,0-1.42-.73c-40.88-15.47-82.11-16.33-123.28-1.76-44.38,15.7-78,45.26-104.83,83.31-1.44,2-.8,3.25.33,4.88a228.5,228.5,0,0,0,46,49.35c9.15,7.23,19,13.63,27.85,20l30.88-30.86c-21.69-32.11-13.4-68.84,6.72-90.36,19.89-21.28,58.77-33.23,93.68-9.67ZM208.72,273.43l64.54-64.56c-14-9.83-39.6-10.34-57.26,7.3S198.81,259.24,208.72,273.43Z"/><path class="cls-1" d="M231.5,319.09c7.15-7.13,13.9-13.93,20.76-20.61a6.31,6.31,0,0,1,3.41-1.21,47.52,47.52,0,0,0,41.44-41.37,6.74,6.74,0,0,1,1.43-3.68c6.58-6.8,13.29-13.47,20-20.26,6.36,15.28,3.45,43.59-13.26,63.71C287.48,317.15,256,327.47,231.5,319.09Z"/></svg>