<svg xmlns="http://www.w3.org/2000/svg" viewBox="0 0 500 500"><defs><style>.cls-1{fill:#f5f5f5;}.cls-2{fill:#e0e0e0;}.cls-3{fill:#07293e;}.cls-4{fill:#ebebeb;}.cls-5{fill:#fff;}.cls-6{fill:#f15513;}.cls-7{fill:#ffbe9d;}.cls-8{fill:#eb996e;}.cls-9{opacity:0.3;}.cls-10{fill:#fafafa;}.cls-11{fill:#455a64;}</style></defs><g id="Background_Complete" data-name="Background Complete"><path class="cls-1" d="M286.88,350.61c-15.59-10.82-19.18-31-18.62-49.13.09-3-.25-6.22,1.18-8.88s4.79-4.49,7.5-3.22c2.25,1.05,3.24,3.66,4.51,5.82a17.7,17.7,0,0,0,7.12,6.77c1.93,1,4.32,1.59,6.22.54,2.6-1.45,2.9-5.06,2.87-8.07l-.15-16.84a28,28,0,0,1,.88-9c.93-2.86,3-5.52,5.85-6.33s6.41.83,7,3.78a27.5,27.5,0,0,1,.1,3.75c.09,1.25.67,2.63,1.86,3s2.41-.51,3.31-1.39c3.09-3.05,5.19-7,7.15-10.87s3.86-7.9,6.67-11.22,6.71-6,11-6.23,8.91,2.39,10,6.62-1.36,8.56-4.05,12a67.28,67.28,0,0,1-13.95,13.38,5.57,5.57,0,0,0-2.34,2.52c-.64,2,1.26,4,3.25,4.66,2.25.74,4.68.5,7,.77s4.9,1.29,5.79,3.51c1.24,3.07-1.32,6.31-3.85,8.43a57.5,57.5,0,0,1-17,9.89c-2.21.82-4.54,1.53-6.32,3.1s-2.86,4.27-1.77,6.38,3.86,2.8,6.18,2.36,4.39-1.71,6.6-2.55c4.13-1.57,9.48-1.3,12.14,2.27a9.53,9.53,0,0,1,1,8.42,22,22,0,0,1-4.54,7.46,58,58,0,0,1-24.68,17.45c-9.59,3.36-18.48,4.28-28,.82"/><path class="cls-2" d="M291.53,339.23a270.07,270.07,0,0,1,10.62-29.09l3.18-7.48c1.05-2.45,2.09-4.88,3.25-7.2A136.29,136.29,0,0,1,316,282.53c2.57-4,5.15-7.69,7.59-11.13s4.79-6.6,7.05-9.39a107.48,107.48,0,0,1,11.62-12.37c1.48-1.34,2.67-2.35,3.48-3l.92-.76.33-.24a2.44,2.44,0,0,1-.29.28l-.89.8c-.79.7-1.95,1.74-3.4,3.11A111.68,111.68,0,0,0,331,262.26c-2.23,2.79-4.55,6-7,9.41s-5,7.15-7.54,11.14a138.06,138.06,0,0,0-7.39,12.9c-1.15,2.3-2.18,4.72-3.23,7.17l-3.17,7.48a276.16,276.16,0,0,0-10.64,29"/><path class="cls-2" d="M308.74,295.44a5.93,5.93,0,0,1-.3-1.28c-.16-.84-.35-2.05-.57-3.55-.44-3-.89-7.15-1.38-11.74s-1-8.73-1.49-11.71c-.23-1.49-.44-2.7-.59-3.53a6.2,6.2,0,0,1-.17-1.31,5.8,5.8,0,0,1,.38,1.26c.22.82.48,2,.77,3.51.58,3,1.16,7.12,1.65,11.72s.89,8.62,1.22,11.75c.15,1.42.29,2.61.39,3.56A6.2,6.2,0,0,1,308.74,295.44Z"/><path class="cls-2" d="M347.43,288.09a10.05,10.05,0,0,1-1.54.19c-1,.09-2.43.21-4.2.42-3.55.4-8.43,1.11-13.77,2.14s-10.15,2.17-13.6,3.1c-1.72.45-3.11.85-4.07,1.12a7.94,7.94,0,0,1-1.51.38,7.67,7.67,0,0,1,1.44-.58c.95-.34,2.32-.8,4-1.3,3.43-1,8.23-2.24,13.59-3.28a137.55,137.55,0,0,1,13.84-2c1.78-.16,3.23-.23,4.23-.25A7.76,7.76,0,0,1,347.43,288.09Z"/><path class="cls-2" d="M292,338.51s-.11-.15-.26-.47l-.67-1.4c-.57-1.21-1.36-3-2.3-5.21-1.88-4.43-4.28-10.63-6.85-17.51s-4.91-13.1-6.69-17.56c-.88-2.17-1.6-3.95-2.13-5.28l-.58-1.44a1.93,1.93,0,0,1-.16-.52,2.26,2.26,0,0,1,.27.48l.66,1.39c.58,1.22,1.36,3,2.3,5.22,1.88,4.43,4.29,10.63,6.85,17.51s4.91,13.09,6.69,17.56l2.14,5.28q.33.85.57,1.44A2.06,2.06,0,0,1,292,338.51Z"/><path class="cls-2" d="M343.4,321.78a1.9,1.9,0,0,1-.51.21l-1.49.5-5.51,1.81c-4.64,1.52-11,3.7-18.1,6.11s-13.48,4.54-18.16,6c-2.34.72-4.24,1.28-5.56,1.64l-1.53.4a1.68,1.68,0,0,1-.54.1,2.81,2.81,0,0,1,.51-.21l1.49-.5,5.51-1.81c4.65-1.52,11-3.69,18.1-6.11s13.49-4.54,18.17-6c2.34-.72,4.24-1.28,5.56-1.63l1.52-.41A1.72,1.72,0,0,1,343.4,321.78Z"/></g><g id="Floor"><path class="cls-3" d="M475.59,463.09c0,.14-94.48.26-211,.26s-211-.12-211-.26,94.46-.26,211-.26S475.59,462.94,475.59,463.09Z"/></g><g id="Screen"><rect class="cls-2" x="42.27" y="45.89" width="85.46" height="141.45"/><rect class="cls-4" x="39.42" y="45.89" width="85.46" height="141.45"/><rect class="cls-5" x="43.06" y="48.76" width="78.18" height="135.72"/><rect class="cls-4" x="57.95" y="66.4" width="48.07" height="100.45"/><path class="cls-2" d="M58,131.3c-.11-9.39,8.32-18.55,17.61-19.86,4.43-.62,9.14.26,13.28-1.44,7.39-3,9.74-12.85,17.18-15.76l.34,72.6H58Z"/><polygon class="cls-2" points="466.04 53.06 466.04 120.89 368.62 120.89 365.11 53.54 466.04 53.06"/><rect class="cls-5" x="380.21" y="38.43" width="67.21" height="97.42" transform="translate(326.67 500.96) rotate(-90)"/><path class="cls-2" d="M463,121.21H364.64V53.08H463Zm-97.42-.92h96.5V54h-96.5Z"/><rect class="cls-5" x="375.66" y="61.89" width="76.32" height="50.51"/><path class="cls-2" d="M452,61.89h-1.47l-4.19,0L430.6,62l-54.94.11.22-.22c0,15.43,0,32.53,0,50.5h0l-.24-.24,76.32,0-.2.19c.05-15.37.08-28,.1-36.75,0-4.39,0-7.82.05-10.16,0-1.17,0-2.06,0-2.68s0-.92,0-.92,0,.29,0,.88,0,1.49,0,2.64c0,2.34,0,5.75.05,10.12,0,8.8.06,21.45.1,36.87v.19H452l-76.32,0h-.24v-.24h0c0-18,0-35.07,0-50.5v-.22h.22l55.08.11,15.68.06,4.14,0h1.07Z"/><path class="cls-2" d="M365.11,53.35a8.32,8.32,0,0,1,1.67,1.08c1,.72,2.35,1.74,3.82,2.92s2.75,2.28,3.66,3.11a8,8,0,0,1,1.4,1.43,67.9,67.9,0,0,1-5.36-4.17A51.58,51.58,0,0,1,365.11,53.35Z"/><path class="cls-2" d="M462.53,53.54a48.29,48.29,0,0,1-5.13,4.36,47.67,47.67,0,0,1-5.42,4,45.74,45.74,0,0,1,5.12-4.37A46.35,46.35,0,0,1,462.53,53.54Z"/><path class="cls-5" d="M462.45,120.76,451.59,112"/><path class="cls-2" d="M451.59,112a50.24,50.24,0,0,1,5.58,4.21,51.67,51.67,0,0,1,5.28,4.59,51.17,51.17,0,0,1-5.58-4.22A51,51,0,0,1,451.59,112Z"/><path class="cls-2" d="M365.11,120.75a43.69,43.69,0,0,1,5.07-4.32,46.8,46.8,0,0,1,5.37-3.94,47.18,47.18,0,0,1-5.07,4.32A47.83,47.83,0,0,1,365.11,120.75Z"/><rect class="cls-2" x="406.71" y="62.07" width="16.91" height="48.02" transform="translate(329.08 501.24) rotate(-90)"/><path class="cls-6" d="M188,175.15a15.56,15.56,0,0,1-2.48,8.64,16.48,16.48,0,0,1-7.24,6A27.23,27.23,0,0,1,166.92,192q-7.84,0-12.94-3a17.36,17.36,0,0,1-5.87-5.69,13,13,0,0,1-2.25-6.92,4.68,4.68,0,0,1,4.8-4.73,4.08,4.08,0,0,1,2.87,1.08,8.52,8.52,0,0,1,2,3.22,21.44,21.44,0,0,0,2.18,4.22A8.83,8.83,0,0,0,161,183a12.15,12.15,0,0,0,5.6,1.11,12.65,12.65,0,0,0,7.75-2.22,6.69,6.69,0,0,0,3-5.55,5.85,5.85,0,0,0-1.6-4.28,10.29,10.29,0,0,0-4.16-2.51q-2.55-.87-6.81-1.85a50.12,50.12,0,0,1-9.56-3.12,15.4,15.4,0,0,1-6.1-4.88,12.64,12.64,0,0,1-2.26-7.68,13.21,13.21,0,0,1,2.38-7.77,15.09,15.09,0,0,1,6.9-5.22,28.2,28.2,0,0,1,10.63-1.82,26.15,26.15,0,0,1,8.43,1.21,17.8,17.8,0,0,1,5.91,3.21,13.36,13.36,0,0,1,3.43,4.21,9.65,9.65,0,0,1,1.09,4.3,5,5,0,0,1-1.36,3.45,4.3,4.3,0,0,1-3.38,1.54,3.92,3.92,0,0,1-2.8-.92,12.28,12.28,0,0,1-2.07-3,13.75,13.75,0,0,0-3.47-4.68q-2-1.68-6.51-1.68a11.3,11.3,0,0,0-6.7,1.82,5.33,5.33,0,0,0-2.55,4.4,4.42,4.42,0,0,0,.87,2.74,7.22,7.22,0,0,0,2.39,2,16,16,0,0,0,3.07,1.3q1.55.47,5.13,1.37a79.43,79.43,0,0,1,8.11,2.32,24.41,24.41,0,0,1,6.18,3.07,12.49,12.49,0,0,1,4,4.57A14.64,14.64,0,0,1,188,175.15Z"/><path class="cls-6" d="M201.36,147.26a5.19,5.19,0,0,1-3.53-1.27,4.91,4.91,0,0,1,0-7,5,5,0,0,1,3.49-1.35,5.17,5.17,0,0,1,3.39,1.23,4.37,4.37,0,0,1,1.48,3.58,4.5,4.5,0,0,1-1.44,3.55A5,5,0,0,1,201.36,147.26Zm4.87,10.19V186a6.39,6.39,0,0,1-1.41,4.48,4.66,4.66,0,0,1-3.57,1.51,4.46,4.46,0,0,1-3.53-1.55,6.57,6.57,0,0,1-1.35-4.44V157.74a6.34,6.34,0,0,1,1.35-4.41,4.56,4.56,0,0,1,3.53-1.48,4.71,4.71,0,0,1,3.57,1.48A5.74,5.74,0,0,1,206.23,157.45Z"/><path class="cls-6" d="M252.7,159.07v28.66a30,30,0,0,1-1,8.45,13.54,13.54,0,0,1-3.36,5.85,14,14,0,0,1-6,3.44,33.16,33.16,0,0,1-9.3,1.12,27.09,27.09,0,0,1-9.11-1.43,15.72,15.72,0,0,1-6.18-3.69,6.73,6.73,0,0,1-2.17-4.64,3.83,3.83,0,0,1,1.23-2.94,4.21,4.21,0,0,1,3-1.14,4.89,4.89,0,0,1,3.8,1.91c.53.65,1.08,1.31,1.64,2a9.4,9.4,0,0,0,1.88,1.7,7.37,7.37,0,0,0,2.48,1,14.37,14.37,0,0,0,3.32.34,13.43,13.43,0,0,0,5.94-1.06,6.14,6.14,0,0,0,3-3,12.26,12.26,0,0,0,1-4.11q.15-2.17.22-7a16.22,16.22,0,0,1-5.26,4.84,14.33,14.33,0,0,1-7.1,1.66,14.93,14.93,0,0,1-8.65-2.53,16.1,16.1,0,0,1-5.69-7.08,26,26,0,0,1-2-10.52,24.88,24.88,0,0,1,1.21-8,17,17,0,0,1,3.45-6,14.72,14.72,0,0,1,5.17-3.7,16.07,16.07,0,0,1,6.43-1.25,15.37,15.37,0,0,1,7.26,1.61,17.62,17.62,0,0,1,5.71,5v-1.34a5.75,5.75,0,0,1,1.26-4,4.19,4.19,0,0,1,3.26-1.41c1.9,0,3.16.62,3.79,1.86A12.15,12.15,0,0,1,252.7,159.07Zm-28.58,12.51c0,4,.87,7,2.62,9.06a8.47,8.47,0,0,0,6.77,3.08,8.86,8.86,0,0,0,4.65-1.32,9.78,9.78,0,0,0,3.56-4,14,14,0,0,0,1.37-6.45q0-6-2.66-9.39a8.48,8.48,0,0,0-7-3.36,8.19,8.19,0,0,0-6.77,3.21C225,164.58,224.12,167.62,224.12,171.58Z"/><path class="cls-6" d="M271.63,157.3v1.19a17.5,17.5,0,0,1,5.69-5,15.19,15.19,0,0,1,7.1-1.6,14.2,14.2,0,0,1,7,1.69,10.83,10.83,0,0,1,4.59,4.81,11.45,11.45,0,0,1,1.26,3.9,40.93,40.93,0,0,1,.29,5.35V186a6.57,6.57,0,0,1-1.35,4.48,4.88,4.88,0,0,1-7.1,0,6.47,6.47,0,0,1-1.38-4.44V169.52a16.52,16.52,0,0,0-1.35-7.47q-1.37-2.58-5.4-2.58a8,8,0,0,0-4.81,1.57,9.06,9.06,0,0,0-3.18,4.32q-.72,2.2-.72,8.24V186a6.42,6.42,0,0,1-1.39,4.49,4.69,4.69,0,0,1-3.6,1.5,4.44,4.44,0,0,1-3.5-1.55,6.47,6.47,0,0,1-1.38-4.44V157.45a6.19,6.19,0,0,1,1.23-4.21,4.25,4.25,0,0,1,3.36-1.39,4.55,4.55,0,0,1,2.35.61A4.43,4.43,0,0,1,271,154.3,6.52,6.52,0,0,1,271.63,157.3Z"/><path class="cls-6" d="M351.49,186.39v-1.27a21.74,21.74,0,0,1-3.72,3.76,13.82,13.82,0,0,1-4.27,2.26,17.38,17.38,0,0,1-5.27.74,13.62,13.62,0,0,1-6.42-1.48,10.89,10.89,0,0,1-4.39-4.08q-1.85-3.15-1.84-9V157.74a6.38,6.38,0,0,1,1.34-4.43,4.54,4.54,0,0,1,3.54-1.46,4.69,4.69,0,0,1,3.61,1.48,6.25,6.25,0,0,1,1.37,4.41v15.79a24.59,24.59,0,0,0,.58,5.76,7,7,0,0,0,2.08,3.65,5.92,5.92,0,0,0,4.06,1.32,8.32,8.32,0,0,0,4.7-1.48,8.71,8.71,0,0,0,3.22-3.87q.82-2.1.83-9.18v-12a6.3,6.3,0,0,1,1.37-4.41,4.65,4.65,0,0,1,3.58-1.48,4.54,4.54,0,0,1,3.54,1.46,6.38,6.38,0,0,1,1.34,4.43v28.58a6,6,0,0,1-1.29,4.22,4.56,4.56,0,0,1-6.64,0A5.89,5.89,0,0,1,351.49,186.39Z"/><path class="cls-6" d="M379.67,157.37v1.2a19.48,19.48,0,0,1,5.78-5,14.07,14.07,0,0,1,6.79-1.61,15.73,15.73,0,0,1,8.39,2.35,16.15,16.15,0,0,1,6.05,6.86,24,24,0,0,1,2.22,10.7,26.22,26.22,0,0,1-1.28,8.36,18.92,18.92,0,0,1-3.52,6.4,15.34,15.34,0,0,1-5.3,4,15.57,15.57,0,0,1-6.56,1.39,13.73,13.73,0,0,1-7.09-1.69,20.35,20.35,0,0,1-5.48-5v14.81q0,6.51-4.73,6.51-2.79,0-3.69-1.68a10.61,10.61,0,0,1-.9-4.9V157.45a6.19,6.19,0,0,1,1.23-4.21,4.25,4.25,0,0,1,3.36-1.39,4.44,4.44,0,0,1,3.41,1.42A5.84,5.84,0,0,1,379.67,157.37ZM399,171.72a17.11,17.11,0,0,0-1.19-6.7,9.85,9.85,0,0,0-3.31-4.3,7.91,7.91,0,0,0-4.68-1.5,8.79,8.79,0,0,0-6.88,3.21q-2.81,3.23-2.8,9.47,0,5.9,2.78,9.16a8.72,8.72,0,0,0,6.9,3.27,8,8,0,0,0,4.56-1.43,9.92,9.92,0,0,0,3.36-4.28A17,17,0,0,0,399,171.72Z"/></g><g id="Character"><path class="cls-7" d="M301.59,328.78s-9.77-9.11-11.59-9.66-16.18-.35-17.13.39-15.21,9.2-12.76,10.34,12.33-4.9,12.33-4.9l1.7.17s-8.63,5-10.14,6.84.06,3.66,1.68,2.84,9-5.42,9.61-5.27-7.86,5.48-8.63,6.44c-1,1.29-.25,3.7,1.38,2.94,1-.44,8.75-6,8.75-6s-5.85,5.26-6.25,6.1c-.66,1.38.73,2.56,2.09,1.66.93-.61,4.89-4.77,6.14-5.59,0,0,1.41-.15,3.55,2s18.18,9.35,18.18,9.35Z"/><path class="cls-7" d="M298.16,330.27c-.6,1.22-2.21,1.59-3.54,1.35s-2.56-.92-3.88-1.25c-3.94-1-8.21,1.22-12.09,0-.55-.17-1.16-.54-1.12-1.11s.63-.8,1.12-1l12.69-4.5"/><path class="cls-8" d="M291.34,323.82a5.54,5.54,0,0,0-1.43.35c-.89.27-2.19.68-3.78,1.21l-5.57,1.89-1.61.56c-.5.22-1.24.28-1.7,1.09a1.14,1.14,0,0,0,.24,1.25,2.45,2.45,0,0,0,.94.57,8.83,8.83,0,0,0,1.95.37c2.67.18,5.06-.51,7.23-.63a10.3,10.3,0,0,1,3,.19c.92.22,1.76.59,2.57.85a4.76,4.76,0,0,0,4-.1c.86-.54,1-1.16.94-1.15a3.68,3.68,0,0,1-1.08.88,4.58,4.58,0,0,1-3.69-.14,26.9,26.9,0,0,0-2.6-1,10.58,10.58,0,0,0-3.22-.28c-2.26.09-4.66.75-7.12.57a7.71,7.71,0,0,1-1.77-.32c-.53-.17-.9-.54-.74-.8s.71-.51,1.25-.7l1.6-.58,5.52-2.05c1.57-.59,2.84-1.08,3.7-1.44A5.83,5.83,0,0,0,291.34,323.82Z"/><path class="cls-8" d="M260.15,329.88a7.78,7.78,0,0,0,3.08-.3,17.05,17.05,0,0,0,3.19-1.07c1.12-.58,2.32-1.24,3.59-1.94l2.69-1.51-.18.05c4.28-.09,7.37-.28,7.37-.45s-3.09-.28-7.38-.28h-.09l-.09.05-2.68,1.46-3.52,2a23.2,23.2,0,0,1-3,1.19C261.3,329.6,260.14,329.76,260.15,329.88Z"/><polygon class="cls-6" points="407.85 298.67 342.09 326.03 301.59 326.03 301.59 339.09 354.72 346.95 402.38 317.25 407.85 298.67"/><g class="cls-9"><polygon points="407.85 298.67 342.09 326.03 301.59 326.03 301.59 339.09 354.72 346.95 402.38 317.25 407.85 298.67"/></g><path class="cls-10" d="M362.52,339.69a1.46,1.46,0,0,1-.73-.46,4,4,0,0,1-1-2.11,23.2,23.2,0,0,1-.1-3.42,16.59,16.59,0,0,0-.57-4.05,17.62,17.62,0,0,0-3.4-6.59c-1.22-1.49-2.19-2.21-2.12-2.29a3.12,3.12,0,0,1,.71.47,13,13,0,0,1,1.69,1.58,16.22,16.22,0,0,1,3.62,6.69,15.79,15.79,0,0,1,.55,4.19,27.1,27.1,0,0,0,0,3.37,4.1,4.1,0,0,0,.81,2C362.28,339.5,362.54,339.65,362.52,339.69Z"/><path class="cls-10" d="M386.66,325.41a7.93,7.93,0,0,1-2.33-1,21.41,21.41,0,0,1-4.86-3.79,21.78,21.78,0,0,1-3.6-5,8.05,8.05,0,0,1-.94-2.37,34.17,34.17,0,0,0,4.92,7A34.6,34.6,0,0,0,386.66,325.41Z"/><path class="cls-10" d="M345.92,345a6.29,6.29,0,0,0,.92-2.69,7.78,7.78,0,0,0-.41-3,17.87,17.87,0,0,0-1.69-3.44,25.33,25.33,0,0,1-1.81-3.49,8.78,8.78,0,0,1-.63-3.18,5.44,5.44,0,0,1,.45-2.14c.22-.47.42-.68.44-.66a7.18,7.18,0,0,0-.52,2.8,9,9,0,0,0,.71,3,27.88,27.88,0,0,0,1.81,3.41,17.12,17.12,0,0,1,1.7,3.55,7.82,7.82,0,0,1,.32,3.23,4.9,4.9,0,0,1-.74,2.06A1.79,1.79,0,0,1,345.92,345Z"/><path class="cls-10" d="M321.53,338.15a11.14,11.14,0,0,1-1.19-6,11,11,0,0,1,1.66-5.85,19.73,19.73,0,0,0-.47,11.81Z"/><path class="cls-11" d="M279.85,414.09l-16.43,21.64S235.9,426.3,232.48,430l40.81,33.37,27-32.67Z"/><path class="cls-2" d="M277.48,444.28a2.14,2.14,0,0,1-.4,2.84,2.07,2.07,0,0,1-2.82-.37,2.27,2.27,0,0,1,.44-3,2.15,2.15,0,0,1,2.89.71"/><path class="cls-2" d="M273.29,463.37l2.68-3.25-40.19-30.87s-2.46-.69-3.3.75Z"/><path class="cls-3" d="M262.92,435c-.15.21.77,1.11,1.23,2.56s.29,2.7.54,2.77.89-1.32.31-3.06S263,434.76,262.92,435Z"/><path class="cls-3" d="M257.2,433.25c-.21.16.38,1.2.37,2.6s-.55,2.45-.34,2.6,1.25-.87,1.23-2.6S257.36,433.07,257.2,433.25Z"/><path class="cls-3" d="M250.58,436.39c.14.19,1.23-.58,1.61-2.09s-.19-2.7-.41-2.61-.12,1.16-.45,2.39S250.4,436.21,250.58,436.39Z"/><path class="cls-3" d="M267.22,430.47c-.07.25,1.07.72,2.13,1.72s1.66,2.07,1.9,2,0-1.49-1.29-2.64S267.25,430.23,267.22,430.47Z"/><path class="cls-3" d="M270.61,426.16c-.07.08.62.85,2.05,1.66a11.65,11.65,0,0,0,2.68,1.09,12.17,12.17,0,0,0,1.68.34,3.33,3.33,0,0,0,1,0,1.11,1.11,0,0,0,1-1,1.4,1.4,0,0,0-.5-1.17,3.19,3.19,0,0,0-.85-.52A9.53,9.53,0,0,0,276,426a9.09,9.09,0,0,0-2.9-.31,4.36,4.36,0,0,0-2.56.68c0,.14,1-.11,2.57,0a10.47,10.47,0,0,1,2.66.46,9.47,9.47,0,0,1,1.47.6c.52.24.89.53.85.82,0,.1,0,.14-.23.19a2.69,2.69,0,0,1-.74,0,12.54,12.54,0,0,1-1.59-.27,14,14,0,0,1-2.59-.86A19.45,19.45,0,0,0,270.61,426.16Z"/><path class="cls-3" d="M270.64,426.66c0,.09,1-.3,2.15-1.53a8.8,8.8,0,0,0,1.55-2.47,8.34,8.34,0,0,0,.49-1.67,2.17,2.17,0,0,0-.46-2.09,1.22,1.22,0,0,0-1.32-.13,3.31,3.31,0,0,0-.82.58,5.71,5.71,0,0,0-1.12,1.37,6.06,6.06,0,0,0-.86,2.83c-.06,1.71.57,2.62.64,2.57a22.45,22.45,0,0,1,0-2.51,6,6,0,0,1,.93-2.45,5.13,5.13,0,0,1,1-1.15c.42-.38.87-.6,1-.42a1.47,1.47,0,0,1,.17,1.25,8.67,8.67,0,0,1-.4,1.52,9.28,9.28,0,0,1-1.27,2.36C271.38,426,270.55,426.54,270.64,426.66Z"/><path class="cls-11" d="M253.45,411.77l-17.8,22s-28.31-10.7-32-7l41.38,36,29.13-33.1Z"/><path class="cls-2" d="M250,443.09a2.25,2.25,0,0,1-.51,3,2.15,2.15,0,0,1-2.92-.48,2.37,2.37,0,0,1,.55-3.12,2.24,2.24,0,0,1,3,.84"/><path class="cls-2" d="M245,462.81l2.9-3.29L207.12,426.1s-2.54-.8-3.47.68Z"/><path class="cls-3" d="M235.17,433c-.17.21.76,1.18,1.19,2.69s.22,2.83.47,2.91,1-1.35.42-3.17S235.29,432.73,235.17,433Z"/><path class="cls-3" d="M229.26,431c-.21.16.36,1.27.31,2.72s-.65,2.53-.44,2.69,1.33-.86,1.37-2.67S229.44,430.78,229.26,431Z"/><path class="cls-3" d="M222.28,434c.14.21,1.3-.56,1.75-2.12s-.12-2.82-.35-2.73-.16,1.2-.55,2.47S222.09,433.82,222.28,434Z"/><path class="cls-3" d="M239.78,428.39c-.08.26,1.09.79,2.17,1.86s1.65,2.21,1.9,2.13,0-1.55-1.25-2.8S239.82,428.15,239.78,428.39Z"/><path class="cls-3" d="M243.45,424c-.07.08.62.9,2.08,1.8a12.69,12.69,0,0,0,2.75,1.22,11.36,11.36,0,0,0,1.74.4,3.16,3.16,0,0,0,1,.06,1.16,1.16,0,0,0,1-1,1.5,1.5,0,0,0-.48-1.24,4.29,4.29,0,0,0-.87-.57,11.16,11.16,0,0,0-1.68-.68,10,10,0,0,0-3-.41c-1.73.06-2.72.53-2.68.63s1.05-.08,2.66,0a11.23,11.23,0,0,1,2.76.57,11.07,11.07,0,0,1,1.51.67c.54.27.91.59.85.88,0,.11,0,.15-.24.2a3.09,3.09,0,0,1-.77,0,12.85,12.85,0,0,1-1.64-.33,15.23,15.23,0,0,1-2.68-1A18.67,18.67,0,0,0,243.45,424Z"/><path class="cls-3" d="M243.46,424.54c0,.09,1.08-.28,2.29-1.52a8.85,8.85,0,0,0,1.69-2.52,8.08,8.08,0,0,0,.57-1.72,2.23,2.23,0,0,0-.41-2.19,1.27,1.27,0,0,0-1.37-.18,4,4,0,0,0-.87.57,6.14,6.14,0,0,0-1.22,1.4,6.44,6.44,0,0,0-1,2.91c-.12,1.78.51,2.75.59,2.7a20.78,20.78,0,0,1,.07-2.62,6.17,6.17,0,0,1,1-2.51,5.65,5.65,0,0,1,1.08-1.17c.45-.38.92-.59,1.05-.41a1.62,1.62,0,0,1,.13,1.32,8.67,8.67,0,0,1-.47,1.57,9.75,9.75,0,0,1-1.4,2.41C244.25,423.85,243.38,424.42,243.46,424.54Z"/><path class="cls-3" d="M366.58,228.52c4-3,10.15-.55,14.48-3.08,2.62-1.54,4-4.53,6-6.8a15.29,15.29,0,0,1,12.7-5c4.5.61,7.69,1.82,9.7,5.9,2.79-3.21,10.13-.86,13.58,2.68s4.49,8.09,4.94,13a65.16,65.16,0,0,1-2.62,25.25c-.22.72-.67,1.59-1.42,1.52-.52-.06-.86-.56-1.11-1-2.11-3.91-3.06-8.33-4.16-12.64s-2.43-8.68-5.15-12.2-7.09-6.08-11.5-5.45c-3.25.46-6.07,2.55-8.24,5s-3.84,5.32-5.82,7.95-4.35,5.09-7.4,6.31-6.89.91-9.19-1.43-2.21-6.85.6-8.55a6.46,6.46,0,0,1-5.37-11.48Z"/><path class="cls-7" d="M405.87,296.34l-2.69-9.12s-12.61,1.86-16.49-10.13c-1.87-5.79-4.76-18-7.25-29.12a23.47,23.47,0,0,1,16-27.55l1.16-.36c12.74-3.15,22.54,5.92,25.34,18.74l13.86,48.9a15.55,15.55,0,0,1-10.62,19.18h0A15.57,15.57,0,0,1,405.87,296.34Z"/><path class="cls-8" d="M403.17,287.22a29.29,29.29,0,0,0,14.3-9.33s-1,9.81-13.37,12.45Z"/><path class="cls-3" d="M384.65,256.33a1.8,1.8,0,0,0,2.19,1.22,1.73,1.73,0,0,0,1.29-2.1,1.79,1.79,0,0,0-2.19-1.22A1.72,1.72,0,0,0,384.65,256.33Z"/><path class="cls-3" d="M383.85,253.05c.29.16,1.29-1.21,3.14-1.78s3.49-.06,3.62-.35c.07-.13-.27-.47-1-.71a4.91,4.91,0,0,0-3,0,4.7,4.7,0,0,0-2.41,1.7C383.78,252.52,383.72,253,383.85,253.05Z"/><path class="cls-3" d="M402.52,251.11a1.79,1.79,0,0,0,2.19,1.22,1.71,1.71,0,0,0,1.29-2.09,1.8,1.8,0,0,0-2.19-1.23A1.73,1.73,0,0,0,402.52,251.11Z"/><path class="cls-3" d="M402.14,247.76c.28.16,1.28-1.21,3.13-1.78s3.5-.06,3.63-.35c.06-.13-.28-.47-1-.71a5,5,0,0,0-3,0,4.7,4.7,0,0,0-2.41,1.7C402.07,247.23,402,247.69,402.14,247.76Z"/><path class="cls-3" d="M399.68,263.55a13.22,13.22,0,0,0-3.17.39c-.49.1-1,.15-1.15-.15a2.66,2.66,0,0,1-.12-1.5c.09-1.28.19-2.62.29-4,.35-5.72.45-10.36.22-10.37s-.71,4.61-1.06,10.33c-.07,1.41-.15,2.75-.21,4a2.81,2.81,0,0,0,.32,1.93,1.28,1.28,0,0,0,1,.45,3.18,3.18,0,0,0,.83-.14A12.54,12.54,0,0,0,399.68,263.55Z"/><path class="cls-3" d="M405.52,263.15c-.31.07.31,2.08-1,4s-3.48,2.4-3.41,2.68.6.24,1.51,0a5.27,5.27,0,0,0,2.88-2.13,4.53,4.53,0,0,0,.68-3.35C406,263.52,405.65,263.09,405.52,263.15Z"/><path class="cls-3" d="M399,238.34c.34.45,2.12-.36,4.37-.77s4.18-.37,4.33-.91c.06-.25-.39-.63-1.25-.9a7.33,7.33,0,0,0-3.46-.12,7.43,7.43,0,0,0-3.16,1.4C399.14,237.61,398.86,238.13,399,238.34Z"/><path class="cls-3" d="M382.87,247.49c.46.32,1.6-.51,3.12-1s2.92-.59,3.08-1.12c.07-.26-.27-.62-1-.84a4.63,4.63,0,0,0-2.76.1,4.56,4.56,0,0,0-2.23,1.62C382.71,246.84,382.67,247.33,382.87,247.49Z"/><path class="cls-7" d="M423.68,248c.17-.16,7.51-5,9.79,3.3s-6.52,8.89-6.6,8.65S423.68,248,423.68,248Z"/><path class="cls-8" d="M428.54,256.13s.17.06.45.1a1.47,1.47,0,0,0,1.09-.27c.78-.57,1.14-2.16.77-3.67a5,5,0,0,0-1-2,1.71,1.71,0,0,0-1.39-.81.76.76,0,0,0-.75.63c0,.26,0,.41,0,.44s-.21-.09-.24-.45a1,1,0,0,1,.18-.61,1.19,1.19,0,0,1,.74-.44,2.1,2.1,0,0,1,1.87.88,5.07,5.07,0,0,1,1.14,2.17c.41,1.69,0,3.49-1.12,4.17a1.62,1.62,0,0,1-1.39.15C428.61,256.32,428.51,256.15,428.54,256.13Z"/><path class="cls-3" d="M376.12,246.24A18.22,18.22,0,0,0,390.48,238c2.15-3.39,3.31-7.66,6.62-9.93a10.25,10.25,0,0,1,7.79-1.29,19.62,19.62,0,0,1,7.28,3.45c-.42,6.83,3.25,13.18,6.8,19a3.44,3.44,0,0,0,1.55,1.6c1.21.45,2.48-.59,3.05-1.74a10.54,10.54,0,0,0,.57-6,35.34,35.34,0,0,0-4.21-13.32,24.11,24.11,0,0,0-9.94-9.67,22.86,22.86,0,0,0-17.1-1,28.08,28.08,0,0,0-13.82,10.38,16.45,16.45,0,0,0-3.25,7.39"/><path class="cls-11" d="M364,232.49a1.87,1.87,0,0,0,.29.69,3.44,3.44,0,0,0,1.68,1.34,5.42,5.42,0,0,0,3.39.08,9.49,9.49,0,0,0,2-.76,4.63,4.63,0,0,0,1.8-1.62,3.06,3.06,0,0,0,.31-2.65,2.65,2.65,0,0,0-2.4-1.55,3.31,3.31,0,0,0-1.54.27,2.86,2.86,0,0,0-1.22,1.07,3.92,3.92,0,0,0-.33,3.25,4.57,4.57,0,0,0,2.23,2.62,6.93,6.93,0,0,0,3.51.77,11.31,11.31,0,0,0,6.79-2.95,32.52,32.52,0,0,0,5-5.55,42.11,42.11,0,0,1,4.42-5.23,12.92,12.92,0,0,1,5.23-3.13,12.25,12.25,0,0,1,5.31-.26,15.22,15.22,0,0,1,7,3.27c.72.58,1.24,1.08,1.59,1.42a5.39,5.39,0,0,0,.53.52s0-.06-.11-.15-.2-.25-.36-.43a16.7,16.7,0,0,0-1.55-1.49,15.1,15.1,0,0,0-7.05-3.44,12.44,12.44,0,0,0-5.46.22,13.2,13.2,0,0,0-5.4,3.18,41.67,41.67,0,0,0-4.48,5.27,32.72,32.72,0,0,1-4.89,5.48,11,11,0,0,1-6.54,2.85,6.46,6.46,0,0,1-3.29-.71,4.13,4.13,0,0,1-2.05-2.38,3.51,3.51,0,0,1,.27-2.93,2.59,2.59,0,0,1,2.42-1.19,2.34,2.34,0,0,1,2.11,1.33,2.72,2.72,0,0,1-.26,2.36,4.32,4.32,0,0,1-1.67,1.54,8.78,8.78,0,0,1-1.93.76,5.34,5.34,0,0,1-3.27,0,3.55,3.55,0,0,1-1.66-1.23A6.16,6.16,0,0,1,364,232.49Z"/><path class="cls-11" d="M426.68,228.87a12.59,12.59,0,0,1-2.31,1.43,7.2,7.2,0,0,1-2.84.57,12.43,12.43,0,0,1-3.55-.53,10.08,10.08,0,0,1-5.18-3.76,20.25,20.25,0,0,1-1.34-2.38,2.56,2.56,0,0,0,.18.73,8.92,8.92,0,0,0,.91,1.82,9.83,9.83,0,0,0,5.31,4,11.85,11.85,0,0,0,3.68.52,7.29,7.29,0,0,0,3-.69,6.85,6.85,0,0,0,1.69-1.15C426.54,229.1,426.7,228.89,426.68,228.87Z"/><path class="cls-11" d="M428.17,234.94c0-.07-.93.44-2.51.83a11.81,11.81,0,0,1-11.56-3.37c-1.12-1.18-1.6-2.09-1.67-2.05a2.18,2.18,0,0,0,.3.66,9.94,9.94,0,0,0,1.14,1.6,11.69,11.69,0,0,0,5.43,3.47,11.51,11.51,0,0,0,6.44,0,10.1,10.1,0,0,0,1.83-.73A2.39,2.39,0,0,0,428.17,234.94Z"/><path class="cls-8" d="M410.72,253.72a.24.24,0,0,0,.19-.26.23.23,0,0,0-.24-.21.24.24,0,0,0-.19.26A.22.22,0,0,0,410.72,253.72Z"/><path class="cls-8" d="M406.94,254a.27.27,0,0,0-.06-.53.24.24,0,0,0-.18.29A.24.24,0,0,0,406.94,254Z"/><path class="cls-8" d="M404.54,254.69c.11,0,.18-.19.15-.38s-.16-.33-.27-.31-.19.19-.15.38S404.42,254.71,404.54,254.69Z"/><path class="cls-8" d="M409.67,256.47c.11,0,.18-.12.16-.19s-.13-.1-.24-.07-.19.12-.17.2A.2.2,0,0,0,409.67,256.47Z"/><path class="cls-8" d="M406.19,256.73a.24.24,0,0,0,.16-.29.23.23,0,0,0-.26-.19.24.24,0,0,0-.16.28A.24.24,0,0,0,406.19,256.73Z"/><path class="cls-8" d="M388.71,259.94a.23.23,0,0,0,.19-.26.24.24,0,0,0-.24-.22.24.24,0,0,0,0,.48Z"/><path class="cls-8" d="M386.23,260.47a.28.28,0,1,0-.26-.22A.25.25,0,0,0,386.23,260.47Z"/><path class="cls-8" d="M390.85,259.34a.2.2,0,0,0,.2-.21.2.2,0,0,0-.23-.16.2.2,0,0,0-.2.21A.2.2,0,0,0,390.85,259.34Z"/><path class="cls-8" d="M389.82,262.3a.23.23,0,0,0,.24-.22.22.22,0,1,0-.43-.05A.23.23,0,0,0,389.82,262.3Z"/><path class="cls-8" d="M387.63,262.53a.21.21,0,0,0,.09-.27.2.2,0,0,0-.28,0,.18.18,0,0,0-.08.26A.19.19,0,0,0,387.63,262.53Z"/><path class="cls-3" d="M251.24,321.33l18.87,11.18,7.77,2.44-8.67-10.27L254,316.43a2.82,2.82,0,0,0-3.8,1.09h0A2.82,2.82,0,0,0,251.24,321.33Z"/><path class="cls-7" d="M323.17,336.81c-.78.09-25.54,1.3-26.21.06s-.82-4.84-5.67-5.6-9.89-1.85-9.89-1.85l-13-6.61s-3.23,1.49.22,4.74a50.63,50.63,0,0,0,6.22,4.82c1.21.83-.32,1.88-.32,1.88l-18.39-10a17.29,17.29,0,0,0,4.36,8l2.71,2.87a6.2,6.2,0,0,0,2.62,6.57c3.76,2.75,10.1,10.18,15.88,9.77s9.85-.46,9.85-.46l30.24,3.78Z"/><path class="cls-8" d="M323.17,336.81a1.57,1.57,0,0,1,0,.29l-.05.88c-.05.82-.13,2-.23,3.49-.21,3.09-.52,7.58-.91,13.26v.16l-.16,0-30.25-3.71h0l-8.39.41c-.73,0-1.44.09-2.21.07a8.44,8.44,0,0,1-2.23-.41,16.36,16.36,0,0,1-4.09-2.06,73.08,73.08,0,0,1-7.25-5.95c-.6-.52-1.22-1-1.86-1.5a7.06,7.06,0,0,1-1.71-1.82A6.32,6.32,0,0,1,263,335l.06.25L261,333.06a27.11,27.11,0,0,1-2-2.33,18.11,18.11,0,0,1-2.85-5.65c-.07-.27-.14-.52-.2-.8l-.1-.54.49.26,18.38,10h-.26a2,2,0,0,0,.6-.66.53.53,0,0,0-.11-.66c-.46-.37-1.1-.78-1.64-1.16-1.12-.79-2.21-1.6-3.24-2.46a12.5,12.5,0,0,1-2.79-2.92,2.55,2.55,0,0,1-.3-2.06,2.8,2.8,0,0,1,1.4-1.53l.1,0,.11.06,13,6.62h-.06L291,331a7.12,7.12,0,0,1,4.14,1.84,6,6,0,0,1,1.22,1.83c.3.66.47,1.36.73,2,.08.19.09.16.26.23a3.1,3.1,0,0,0,.46.11c.33,0,.65.09,1,.12.66.06,1.3.09,1.94.11,1.27.05,2.51.06,3.69.06,2.36,0,4.53,0,6.49-.08,3.92-.09,7-.2,9.09-.27l2.39-.09.61,0h.21l-.2,0-.61.06-2.39.15c-2.09.11-5.17.27-9.09.39q-2.94.1-6.5.14c-1.19,0-2.42,0-3.7,0-.64,0-1.29-.05-2-.11-.33,0-.67-.06-1-.11-.17-.05-.34-.06-.52-.13a.72.72,0,0,1-.47-.41c-.28-.66-.45-1.32-.74-2a5.64,5.64,0,0,0-1.15-1.72,6.73,6.73,0,0,0-3.94-1.71l-9.54-1.77h-.05l-13-6.6h.21a2.28,2.28,0,0,0-1.15,1.24,2.08,2.08,0,0,0,.27,1.68,12.08,12.08,0,0,0,2.68,2.77c1,.85,2.1,1.65,3.21,2.42.57.42,1.1.73,1.71,1.22a1.09,1.09,0,0,1,.31.58,1.12,1.12,0,0,1-.1.66,2.49,2.49,0,0,1-.78.86l-.12.09-.14-.08-18.39-10,.38-.28a7.39,7.39,0,0,0,.18.75,17.53,17.53,0,0,0,2.77,5.49,25.38,25.38,0,0,0,2,2.28l2.06,2.18.1.1,0,.15a5.82,5.82,0,0,0,.79,4.49,6.76,6.76,0,0,0,1.59,1.7c.63.49,1.28,1,1.88,1.52a72.35,72.35,0,0,0,7.2,5.92,15.67,15.67,0,0,0,3.95,2,8.09,8.09,0,0,0,2.11.39c.69,0,1.44,0,2.16-.06l8.41-.39h0l30.24,3.86-.17.14c.46-5.63.83-10.09,1.08-13.16l.3-3.51.08-.91C323.15,336.92,323.17,336.82,323.17,336.81Z"/><path class="cls-8" d="M262.3,334c-.09.15,2,1.55,4.58,3.12s4.82,2.73,4.91,2.58-2-1.55-4.58-3.12S262.39,333.81,262.3,334Z"/><path class="cls-3" d="M267.05,415.49c-.89-1.48,32.17,21.38,32.17,21.38l31.16-34.6L388.6,461l4.84-24.86,8.83-54.32-49.65-49.41s-8.25-8.07-20.77-1C321.58,337.18,267.05,415.49,267.05,415.49Z"/><path class="cls-3" d="M238.5,421.12l59.21-76.22S313.47,330,330,334.55c9.84,2.7,65.81,57.33,65.81,57.33l17.41,7.06,26.57,45.58S406.35,474.93,382,457.33c-22.82-16.51-63-68.78-63-68.78l-49.92,54.68Z"/><path class="cls-11" d="M357.46,434.23s-.08-.06-.22-.2l-.62-.64c-.54-.56-1.31-1.42-2.3-2.53-2-2.22-4.8-5.48-8.27-9.56-6.95-8.18-16.52-19.63-27.22-32.59h.39l-4.75,5.36c-12.28,13.81-23.52,26.18-31.78,35-4.12,4.43-7.51,8-9.86,10.4l-2.74,2.77-.72.72-.26.23s.07-.1.22-.27l.69-.75,2.66-2.84,9.74-10.51c8.19-8.91,19.39-21.32,31.66-35.12l4.76-5.36.2-.23.19.23c10.68,13,20.21,24.46,27.08,32.69,3.44,4.08,6.22,7.37,8.15,9.67,1,1.1,1.7,2,2.23,2.58l.58.67A2.71,2.71,0,0,1,357.46,434.23Z"/><path class="cls-11" d="M412.32,435.14a5.27,5.27,0,0,1-1.29-.5,17.05,17.05,0,0,1-3.21-2,18.44,18.44,0,0,1-5.25-22.69,16.69,16.69,0,0,1,2-3.22,6.9,6.9,0,0,1,.94-1,29.59,29.59,0,0,0-2.6,4.4,18.64,18.64,0,0,0,5.14,22.26A28.58,28.58,0,0,0,412.32,435.14Z"/><path class="cls-11" d="M363.44,361c.1-.11,7.19,6.86,15.84,15.55s15.58,15.82,15.48,15.92-7.2-6.86-15.85-15.56S363.33,361.12,363.44,361Z"/><path class="cls-6" d="M461.28,317.26c-7.93-19.38-26.91-36.77-26.91-36.77S399.73,301.26,398.55,302s-40.26,28.55-40.26,28.55-47.23,1.58-59.86,1.28l-5.58,24.61s59.49,7.34,67.28,5.39c4-1,42.85-12.46,42.85-12.46s-1,13.21-1.59,19c-1,9.43-6.78,23-6.78,23s23,24.26,26.55,36.88,19.08,18.5,26.42,18.2,1.76-5.28,1.76-5.28,11.17-19.71,15-42.9S469.21,336.63,461.28,317.26Z"/><path class="cls-3" d="M431.64,340.25a4.21,4.21,0,0,1-.72.3l-2.1.74c-1.83.64-4.48,1.53-7.76,2.61-6.57,2.16-15.67,5-25.77,8.07s-19.29,5.67-26,7.51c-3.33.92-6,1.64-7.91,2.12l-2.16.53a3.71,3.71,0,0,1-.76.15,4.22,4.22,0,0,1,.73-.25l2.14-.62,7.86-2.29c6.64-1.92,15.8-4.61,25.9-7.64s19.21-5.86,25.81-7.93l7.81-2.45,2.12-.65A4.86,4.86,0,0,1,431.64,340.25Z"/><path class="cls-3" d="M442,330.19a11.6,11.6,0,0,1,.38-1.59,32.62,32.62,0,0,0,.76-4.35,29.09,29.09,0,0,0-10.56-25.8,30.61,30.61,0,0,0-3.59-2.57,10.1,10.1,0,0,1-1.38-.87,1.76,1.76,0,0,1,.39.16c.25.12.63.27,1.09.53a27,27,0,0,1,3.72,2.46,28.47,28.47,0,0,1,10.7,26.14,26.1,26.1,0,0,1-.94,4.36c-.14.5-.3.88-.39,1.14A1.33,1.33,0,0,1,442,330.19Z"/><path class="cls-3" d="M431,432.34a3.59,3.59,0,0,1-.25-.5l-.64-1.47c-.53-1.28-1.34-3.12-2.39-5.38s-2.36-4.89-3.92-7.78-3.39-6-5.44-9.18-4.17-6.11-6.15-8.72-3.87-4.9-5.5-6.77-3-3.37-3.93-4.38c-.43-.48-.79-.87-1.08-1.18a2.07,2.07,0,0,1-.35-.44,3,3,0,0,1,.43.37L403,388c1,1,2.39,2.43,4,4.28s3.58,4.12,5.61,6.71,4.13,5.55,6.2,8.74,3.87,6.33,5.43,9.23,2.84,5.58,3.83,7.86,1.77,4.15,2.25,5.45l.54,1.51A2.15,2.15,0,0,1,431,432.34Z"/><g class="cls-9"><path d="M438.36,424c-1.2-3-3.92-5.05-6.44-7.06-10.13-8.07-18.74-17.84-27.3-27.55l22.12,32.1c.7,2.18,1.43,5.62,2.69,7.52s3.53,3.37,5.77,2.88C438.35,431.2,439.55,427,438.36,424Z"/></g><g class="cls-9"><path d="M402.6,350.59c6.23,2.71,13.3,4,19.88,2.31S435,346,436.34,339.39l-33.78,9.44"/></g><path class="cls-10" d="M318.44,358.86a7.47,7.47,0,0,0,0-1.12,5,5,0,0,0-1.5-2.6,18.34,18.34,0,0,1-3.24-3.39,11.27,11.27,0,0,1-1.35-5.6c0-2,.18-4,.11-5.69a10.51,10.51,0,0,0-1-4.41,7,7,0,0,0-1.89-2.39c-.57-.44-.95-.61-.93-.66a2.89,2.89,0,0,1,1.05.5,6.56,6.56,0,0,1,2.09,2.38,10.55,10.55,0,0,1,1.16,4.56c.1,1.77-.09,3.71-.07,5.7a11.2,11.2,0,0,0,1.24,5.37c.85,1.47,2.2,2.37,3.1,3.38a4.9,4.9,0,0,1,1.43,2.82,2.63,2.63,0,0,1-.07.87C318.5,358.77,318.45,358.87,318.44,358.86Z"/><path class="cls-10" d="M345.87,330.5s.13.07.25.31a1.48,1.48,0,0,1,0,1.14,2.39,2.39,0,0,1-1.27,1.28c-.64.31-1.38.55-2.16.91a15,15,0,0,0-4.76,3.56,15.37,15.37,0,0,0-3.47,6.36c-.7,2.52-.44,5-.4,7.33a16.48,16.48,0,0,1-.25,3.28,7.87,7.87,0,0,1-1.06,2.68,5.6,5.6,0,0,1-3.23,2.54,3.83,3.83,0,0,1-1.13.1c-.25,0-.39-.06-.38-.08a8.26,8.26,0,0,0,1.46-.21,5.61,5.61,0,0,0,3-2.54,7.42,7.42,0,0,0,1-2.57,17.16,17.16,0,0,0,.19-3.19c-.06-2.25-.35-4.85.38-7.47a15.36,15.36,0,0,1,3.62-6.55,15,15,0,0,1,5-3.58c.81-.35,1.57-.57,2.18-.83a2.25,2.25,0,0,0,1.22-1.09,1.43,1.43,0,0,0,.09-1C346,330.62,345.85,330.51,345.87,330.5Z"/><path class="cls-10" d="M372.52,358.66s.29-.4.68-1.17a7.19,7.19,0,0,0,.67-3.56,9.36,9.36,0,0,0-1.86-5,21.37,21.37,0,0,0-4.85-4.58c-1.93-1.41-3.86-2.69-5.42-4.1a14.18,14.18,0,0,1-3.45-4.39,8.81,8.81,0,0,1-.94-3.64,5.53,5.53,0,0,1,.06-1c0-.23.06-.35.08-.34s0,.49.06,1.36a9.28,9.28,0,0,0,1.07,3.48,14.28,14.28,0,0,0,3.44,4.2c1.55,1.36,3.46,2.62,5.41,4a21.21,21.21,0,0,1,4.93,4.72,9.49,9.49,0,0,1,1.83,5.27,6.83,6.83,0,0,1-.85,3.66,4.4,4.4,0,0,1-.6.84C372.62,358.59,372.53,358.67,372.52,358.66Z"/><path class="cls-10" d="M410.84,344.12s.31-.62.58-1.79a9.2,9.2,0,0,0-.37-5,12,12,0,0,0-4.52-5.88,27.63,27.63,0,0,0-8.45-3.79c-2.55-.75-5.05-1.37-7.33-2.17a23.36,23.36,0,0,1-6-3,14.43,14.43,0,0,1-3.67-3.73,9.91,9.91,0,0,1-1.4-3.08l.1.05a7.3,7.3,0,0,1-1.29.33,8.64,8.64,0,0,1,1.24-.48l.08,0,0,.08a10.94,10.94,0,0,0,1.49,3,14.64,14.64,0,0,0,3.66,3.55,23.38,23.38,0,0,0,5.89,2.84c2.25.77,4.74,1.38,7.31,2.14a27.25,27.25,0,0,1,8.58,3.91,12.15,12.15,0,0,1,4.59,6.14,9.07,9.07,0,0,1,.22,5.18,6,6,0,0,1-.52,1.32C411,344,410.86,344.13,410.84,344.12Z"/><path class="cls-10" d="M413.75,293.42a2.39,2.39,0,0,1,.58,0h.7l1,.1a14.58,14.58,0,0,1,5.73,2.07,15.62,15.62,0,0,1,6,6.7,18.58,18.58,0,0,1,.93,11c-.65,3.89-1.83,7.45-2.5,10.75a25.78,25.78,0,0,0-.39,8.88,13.24,13.24,0,0,0,2.1,5.57c.83,1.16,1.46,1.67,1.41,1.71a8,8,0,0,1-1.57-1.59,12.8,12.8,0,0,1-2.3-5.63,25.4,25.4,0,0,1,.28-9c.66-3.35,1.81-6.91,2.46-10.75a18.39,18.39,0,0,0-.86-10.68,15.39,15.39,0,0,0-5.78-6.59,15.07,15.07,0,0,0-5.56-2.18l-.93-.15-.7-.05A3.35,3.35,0,0,1,413.75,293.42Z"/><path class="cls-10" d="M466.1,354.38a8.52,8.52,0,0,0-2.2-1.51,10.3,10.3,0,0,0-7.13-.23c-3,.81-6,3.16-9.2,5.68a30.14,30.14,0,0,1-5.5,3.48,24,24,0,0,1-19.95.09c-3.79-1.67-7-3.51-10-4.37a15.69,15.69,0,0,0-7.22-.61,14.47,14.47,0,0,0-2.58.77,7.18,7.18,0,0,1,2.54-1,15.07,15.07,0,0,1,7.36.45c3.06.82,6.34,2.65,10.1,4.28a23.67,23.67,0,0,0,19.54-.11,29.57,29.57,0,0,0,5.43-3.41c3.25-2.48,6.27-4.85,9.39-5.65a10.43,10.43,0,0,1,7.32.4,9.35,9.35,0,0,1,1,.61c.26.22.49.39.65.56A3.76,3.76,0,0,1,466.1,354.38Z"/><path class="cls-10" d="M464.07,334.63a1.11,1.11,0,0,1,0,.32,3,3,0,0,1-.3.86,5.64,5.64,0,0,1-2.33,2.42,8.91,8.91,0,0,1-4.86,1.12,38.89,38.89,0,0,1-6-.94,29.05,29.05,0,0,0-10.83,0c-2.74.54-4.36,1.21-4.39,1.12a4.69,4.69,0,0,1,1.12-.51,22.88,22.88,0,0,1,3.2-1,27.31,27.31,0,0,1,11-.18,44.71,44.71,0,0,0,5.93,1,8.82,8.82,0,0,0,4.66-1,5.78,5.78,0,0,0,2.33-2.19C463.93,335.05,464,334.61,464.07,334.63Z"/><path class="cls-10" d="M458,312c0,.09-.95,0-2.46.16a18.87,18.87,0,0,0-10.69,4.42c-1.15,1-1.77,1.68-1.84,1.63a7,7,0,0,1,1.6-1.91,16.87,16.87,0,0,1,5.05-3.25,16.69,16.69,0,0,1,5.86-1.26A7.37,7.37,0,0,1,458,312Z"/><path class="cls-10" d="M443.19,290.2a5.14,5.14,0,0,1-.68,1.81,15.45,15.45,0,0,1-2.75,3.8,16,16,0,0,1-3.76,2.81,5.24,5.24,0,0,1-1.81.7,29.86,29.86,0,0,0,5.2-3.88A29.44,29.44,0,0,0,443.19,290.2Z"/><path class="cls-10" d="M462.83,397.56a5.82,5.82,0,0,1-.16-.72c0-.25-.1-.54-.16-.87s-.2-.74-.32-1.17a18.62,18.62,0,0,0-3.62-6.7,19.7,19.7,0,0,0-9.3-6.23,17,17,0,0,0-6.61-.63,44.28,44.28,0,0,0-7.09,1.42,53.32,53.32,0,0,1-7.13,1.56,28.45,28.45,0,0,1-6.83.06,30.23,30.23,0,0,1-10.95-3.46,28.23,28.23,0,0,1-6.25-4.59,20.89,20.89,0,0,1-1.45-1.54,3.39,3.39,0,0,1-.45-.58,5.87,5.87,0,0,1,.53.51c.34.34.82.86,1.51,1.46a29.58,29.58,0,0,0,6.28,4.41,30.77,30.77,0,0,0,10.84,3.32,29.57,29.57,0,0,0,6.7-.09,56.4,56.4,0,0,0,7.07-1.57,44.12,44.12,0,0,1,7.17-1.42,17.58,17.58,0,0,1,6.8.68,20,20,0,0,1,9.45,6.45,18.24,18.24,0,0,1,3.53,6.89c.1.45.21.84.27,1.19s.08.63.11.89A3.35,3.35,0,0,1,462.83,397.56Z"/><path class="cls-10" d="M408.65,395.93a5.47,5.47,0,0,1-2,.28,13.92,13.92,0,0,1-4.92-.89,13.73,13.73,0,0,1-4.28-2.57,5.32,5.32,0,0,1-1.35-1.55,21.61,21.61,0,0,0,5.82,3.64A21.09,21.09,0,0,0,408.65,395.93Z"/><path class="cls-10" d="M456.07,426.24a2.35,2.35,0,0,1-.48.19,7.32,7.32,0,0,1-1.45.32,10.56,10.56,0,0,1-5.37-.9,18,18,0,0,1-6.42-4.92c-2-2.32-3.73-5.2-5.77-8a30.31,30.31,0,0,0-3.26-3.86,19.6,19.6,0,0,0-3.73-2.84,21.51,21.51,0,0,0-7.46-2.71,25.37,25.37,0,0,0-7.36,0,1.89,1.89,0,0,1,.5-.15,12.74,12.74,0,0,1,1.46-.27,20.12,20.12,0,0,1,5.46,0,21.29,21.29,0,0,1,7.64,2.65,19.82,19.82,0,0,1,3.84,2.89A29,29,0,0,1,437,412.6c2.06,2.85,3.77,5.72,5.71,8a18,18,0,0,0,6.21,4.89,10.7,10.7,0,0,0,5.2,1C455.38,426.44,456.06,426.18,456.07,426.24Z"/><path class="cls-10" d="M440,445.8c-.09,0-.1-.9-.37-2.32a16.59,16.59,0,0,0-5.54-9.51c-1.1-.94-1.88-1.4-1.83-1.48a6.78,6.78,0,0,1,2.06,1.19,14.79,14.79,0,0,1,5.67,9.74A6.39,6.39,0,0,1,440,445.8Z"/></g><g id="Plant"><path class="cls-6" d="M91.39,323.06c-9.64-14.76-8.24-35.83,3.28-49.17,3.58-4.14,8.57-7.74,14-7.27s10.08,5.26,11.78,10.6,1.11,11.12.11,16.63c-1.4,7.72-3.74,15.61-9.09,21.35s-13.22,11.62-20.1,7.86"/><path class="cls-6" d="M96.72,394.06a22.06,22.06,0,0,1,6.15-25c2.22-1.81,5.12-3.21,7.88-2.47s4.72,3.62,5.11,6.53-.44,5.82-1.45,8.57c-1.42,3.85-3.34,7.71-6.62,10.18s-7.86,4.79-11.07,2.23"/><path class="cls-6" d="M73.47,389c2.65-13.08-4.24-27.51-16.08-33.66-3.68-1.91-8.2-3.05-11.9-1.19s-5.62,6.53-5.32,10.76,2.34,8.13,4.58,11.73c3.15,5,7,9.93,12.38,12.46s12.55,4.47,16.34-.1"/><path class="cls-6" d="M75.14,353.63c4.62-14.9-3.21-33-16.26-41.52-4.05-2.65-9.18-4.5-13.7-2.77s-7.3,6.93-7.44,11.88,1.76,9.74,3.95,14.19c3.06,6.22,7,12.37,12.93,15.95s15.58,7.14,20.52,2.27"/><path class="cls-3" d="M84.41,426.46a3.74,3.74,0,0,1-.15-.72c-.08-.54-.18-1.23-.31-2.08q-.09-.69-.21-1.5c-.1-.55-.22-1.14-.34-1.77-.24-1.28-.49-2.73-.91-4.3q-.28-1.2-.6-2.49l-.78-2.66c-.5-1.85-1.23-3.76-1.92-5.8a113,113,0,0,0-5.75-12.75A112.26,112.26,0,0,0,66,380.54c-1.32-1.7-2.51-3.37-3.78-4.8l-1.78-2.12-1.74-1.88c-1.08-1.21-2.15-2.23-3.08-3.13l-1.29-1.26-1.13-1-1.56-1.41a2.81,2.81,0,0,1-.52-.52,3.09,3.09,0,0,1,.6.43l1.64,1.32,1.18,1,1.32,1.23c1,.89,2.06,1.88,3.17,3.09l1.77,1.85,1.83,2.11c1.29,1.43,2.5,3.1,3.84,4.8A107,107,0,0,1,74,392.09a108,108,0,0,1,5.74,12.85c.68,2.06,1.39,4,1.87,5.86l.75,2.68c.2.87.39,1.71.57,2.51.39,1.59.61,3.05.82,4.34.1.63.2,1.23.29,1.78s.11,1.06.15,1.52c.08.85.15,1.55.2,2.1A3.66,3.66,0,0,1,84.41,426.46Z"/><path class="cls-3" d="M84.07,429.14a1.13,1.13,0,0,1,0-.3c0-.23,0-.52.06-.86.08-.81.18-1.92.31-3.31.07-.73.15-1.52.24-2.39s.09-1.83.14-2.86c.08-2,.27-4.37.2-6.95,0-1.29,0-2.64,0-4.05s-.15-2.86-.22-4.38c-.1-3-.51-6.24-.88-9.63a150.65,150.65,0,0,0-4.57-21.67,149.93,149.93,0,0,0-8-20.66c-1.54-3-2.95-6-4.51-8.55-.77-1.31-1.45-2.61-2.21-3.8l-2.19-3.4c-1.34-2.2-2.78-4.05-4-5.72-.6-.83-1.14-1.62-1.67-2.31l-1.5-1.88-2.06-2.61-.53-.69a1.26,1.26,0,0,1-.16-.24s.08.06.21.2l.57.65,2.16,2.54,1.55,1.84c.54.69,1.1,1.47,1.72,2.29,1.21,1.66,2.67,3.49,4,5.68l2.24,3.4c.76,1.18,1.46,2.48,2.24,3.78,1.59,2.6,3,5.52,4.58,8.57a146.92,146.92,0,0,1,8.07,20.73,147.45,147.45,0,0,1,4.54,21.78c.35,3.4.74,6.63.82,9.67.06,1.52.19,3,.19,4.4s0,2.77,0,4.06c0,2.59-.19,4.93-.3,7-.07,1-.11,2-.19,2.85l-.3,2.39c-.17,1.39-.32,2.5-.42,3.3-.05.35-.09.63-.12.86A1.48,1.48,0,0,1,84.07,429.14Z"/><path class="cls-3" d="M109.18,284.43s0,.1-.13.28l-.41.77L107,288.42c-.35.64-.78,1.34-1.19,2.13l-1.29,2.59c-.46.94-1,1.93-1.49,3s-1,2.22-1.51,3.42-1.09,2.44-1.63,3.76-1,2.72-1.6,4.16l-.84,2.19c-.26.75-.52,1.52-.78,2.29l-1.61,4.79c-2,6.61-4,14-5.62,21.79s-2.69,15.36-3.51,22.24-1.23,13.1-1.37,18.33c-.13,2.62-.16,5-.17,7.06s0,3.88,0,5.34,0,2.55,0,3.37c0,.36,0,.65,0,.88a1,1,0,0,1,0,.3,1.4,1.4,0,0,1,0-.3q0-.35-.06-.87c0-.82-.1-1.95-.17-3.37s-.11-3.26-.11-5.35,0-4.45.07-7.07c.09-5.25.56-11.48,1.24-18.39s1.88-14.45,3.47-22.3,3.6-15.22,5.68-21.84c.57-1.64,1.11-3.24,1.65-4.79l.79-2.3.86-2.19c.57-1.43,1.11-2.82,1.64-4.15s1.14-2.57,1.67-3.77,1-2.34,1.56-3.4l1.54-3c.48-.92.92-1.78,1.34-2.57s.87-1.48,1.24-2.11l1.75-2.89.47-.74A1.47,1.47,0,0,1,109.18,284.43Z"/><path class="cls-3" d="M105.9,374.94a12.22,12.22,0,0,1-1,1.81c-.71,1.12-1.68,2.79-2.81,4.87s-2.39,4.63-3.66,7.5-2.46,6.11-3.54,9.57a101.35,101.35,0,0,0-2.47,9.9c-.58,3.09-1,5.89-1.22,8.26s-.38,4.28-.43,5.61a12.26,12.26,0,0,1-.17,2.06,12.86,12.86,0,0,1-.07-2.07c0-1.33,0-3.27.23-5.65a82.44,82.44,0,0,1,1.08-8.31,96.16,96.16,0,0,1,2.44-10,93.34,93.34,0,0,1,3.62-9.61,82.78,82.78,0,0,1,3.8-7.48c1.19-2.07,2.22-3.71,3-4.8A13.08,13.08,0,0,1,105.9,374.94Z"/><polygon class="cls-11" points="65.47 419.82 107.83 419.82 102.71 463.09 70.75 463.09 65.47 419.82"/><polygon class="cls-3" points="67.02 458.42 70.61 463.09 102.71 463.09 106.41 458.57 67.02 458.42"/><path class="cls-10" d="M106.18,432.55c0,.17-8.79.31-19.63.31s-19.64-.14-19.64-.31,8.79-.32,19.64-.32S106.18,432.37,106.18,432.55Z"/><path class="cls-10" d="M106.18,435.43c0,.17-8.79.31-19.63.31s-19.64-.14-19.64-.31,8.79-.32,19.64-.32S106.18,435.25,106.18,435.43Z"/><path class="cls-10" d="M105.65,438.22c0,.17-8.48.31-18.94.31s-18.95-.14-18.95-.31,8.48-.32,18.95-.32S105.65,438,105.65,438.22Z"/></g></svg>