<svg id="Layer_1" data-name="Layer 1" xmlns="http://www.w3.org/2000/svg" viewBox="0 0 500 500"><defs><style>.cls-1{fill:#212121;}</style></defs><path class="cls-1" d="M454.39,252.37c-2,3.28-3.58,6.84-5.95,9.8-28.81,36.07-62.2,67-102.38,90.17-26.45,15.23-54.65,25.47-85.35,27.54-25,1.7-49.27-2.54-72.69-11.44-35.33-13.42-65.67-34.65-93.4-59.92A387.29,387.29,0,0,1,50,260.24c-5.8-7.45-5.84-13.12,0-20.53,29-36.8,62.77-68.35,103.52-91.85,32-18.46,66.15-29.61,103.62-28,25.74,1.14,50,8.09,73.05,19.4,48.37,23.75,87.08,59.09,120.23,101,1.69,2.14,2.68,4.84,4,7.28ZM76.07,249.69c1.5,1.79,2.52,3.17,3.7,4.38,12.44,12.75,24.33,26.1,37.47,38.08,25.34,23.1,53.53,41.94,86.33,53.09,19.64,6.68,39.77,9.51,60.47,7.24,26.53-2.91,50.61-12.75,73.29-26.34,29.48-17.67,54.68-40.41,77.54-65.88,3-3.33,5.84-6.79,9.05-10.54-7.85-8.48-15.21-16.88-23-24.82-26.33-26.73-55.47-49.65-90.16-64.7-17.29-7.51-35.28-12.43-54.26-13.33-29-1.36-55.69,6.73-81.1,19.87-28.4,14.67-53,34.49-75.33,57.13C91.84,232.16,84.14,241,76.07,249.69Z"/><path class="cls-1" d="M330.76,250.31c-.32,44.79-36.84,80.93-81.3,80.43-44.74-.5-80.56-36.7-80.24-81.1.32-44.81,36.82-80.93,81.3-80.43C295.25,169.7,331.08,205.92,330.76,250.31Zm-26.93-.19a53.91,53.91,0,0,0-53.6-54c-29.56-.32-54.19,24.22-54.12,53.94a53.86,53.86,0,0,0,107.72.09Z"/></svg>